<svg width="300" height="37" viewBox="0 0 300 37" fill="none" xmlns="http://www.w3.org/2000/svg">
<g clip-path="url(#clip0_1_562)">
<path d="M8.66025 30.7287H0V7.19884H8.34186C12.5446 7.13428 15.8241 9.32911 15.8241 13.1055C15.8241 13.6542 15.7922 14.1384 15.5057 15.0421C15.3783 15.494 15.1873 15.8813 14.9326 16.2686C14.455 17.0433 13.4998 17.947 12.2899 18.4957C13.9137 18.9153 15.2191 19.9159 15.8877 21.0456C16.5564 22.1753 16.8429 23.305 16.8429 24.2733C16.8429 26.4681 15.9196 28.1788 14.3913 29.2117C12.863 30.2122 10.889 30.7287 8.66025 30.7287ZM8.15082 9.45822H2.41978V17.6565H7.95979C9.77462 17.6565 11.1119 17.2692 12.0034 16.4623C12.8949 15.6554 13.3406 14.6548 13.3406 13.396C13.3406 10.5234 10.7935 9.45822 8.15082 9.45822ZM8.24634 19.8514H2.41978V28.4693H8.72393C11.2392 28.4693 14.3595 27.4364 14.3595 24.1119C14.3595 22.0785 13.1177 20.9488 11.5576 20.4001C10.4751 19.9805 9.42439 19.8514 8.24634 19.8514ZM38.7164 30.7287H35.7554L28.8781 21.207H24.1659V30.7287H21.7143V7.19884H29.7696C32.5078 7.19884 34.7047 7.97348 35.9782 9.26456C37.2518 10.5556 37.9204 12.1695 37.9204 14.0738C37.9204 18.0439 34.9912 20.3355 31.5526 20.7874L38.7164 30.7287ZM24.1659 9.52277V18.9476H29.5467C31.5844 18.9476 33.1764 18.3666 34.0997 17.4306C34.9912 16.5269 35.437 15.3972 35.437 14.1384C35.437 11.8144 34.0361 9.52277 29.6104 9.52277H24.1659ZM43.0465 30.7287V7.19884H45.4982V30.7287H43.0465ZM72.243 13.9447L69.9188 14.7839C69.6322 13.9447 69.2502 13.0732 68.3268 12.0081C67.8811 11.5239 67.3717 11.0398 66.7985 10.6525C65.6523 9.84554 63.8693 9.26456 61.9272 9.26456C60.176 9.26456 58.6159 9.68416 57.215 10.5879C55.814 11.4917 54.7315 12.6536 53.9674 14.1384C53.2032 15.5908 52.8212 17.1724 52.8212 18.9153C52.8212 21.562 53.7127 24.0151 55.2409 25.7903C56.8011 27.5655 59.2208 28.663 61.959 28.663C64.0285 28.663 66.0026 27.9851 67.499 26.8232C68.9954 25.6612 70.0143 23.7891 70.1417 21.6266H60.4626V19.3349H72.7525V20.2387C72.7525 23.2082 71.7018 25.8871 69.8869 27.8238C68.0403 29.7604 65.2066 30.9546 61.9272 30.9546C58.4567 30.9546 55.432 29.6635 53.4579 27.5333C51.4839 25.403 50.3059 22.369 50.3059 19.0444C50.3059 16.8173 50.8153 14.7516 51.8341 12.9118C52.853 11.0721 54.2539 9.6196 56.0369 8.55447C57.8199 7.48933 59.8258 6.9729 61.9908 6.9729C64.729 6.9729 67.1488 7.74754 68.8044 9.10317C70.4919 10.4265 71.6063 12.0404 72.243 13.9447ZM93.0022 30.7287V19.9482H79.7889V30.7287H77.3373V7.19884H79.7889V17.6243H93.0022V7.19884H95.4538V30.7287H93.0022ZM109.495 9.52277V30.7287H107.075V9.52277H99.3063V7.19884H117.264V9.52277H109.495ZM121.116 30.7287V7.19884H135.635V9.4905H123.568V17.6243H134.616V19.9159H123.568V28.437H135.762V30.7287H121.116ZM157.795 30.7287H154.834L147.957 21.207H143.244V30.7287H140.793V7.19884H148.848C151.586 7.19884 153.783 7.97348 155.057 9.26456C156.33 10.5556 156.999 12.1695 156.999 14.0738C156.999 18.0439 154.07 20.3355 150.631 20.7874L157.795 30.7287ZM143.244 9.52277V18.9476H148.625C150.663 18.9476 152.255 18.3666 153.178 17.4306C154.07 16.5269 154.515 15.3972 154.515 14.1384C154.515 11.8144 153.115 9.52277 148.689 9.52277H143.244Z" fill="white"/>
<path d="M179.548 0.000488281C178.959 1.18107 178.62 2.51185 178.621 3.92541C178.622 7.90427 181.259 11.2524 184.856 12.2914C186.481 9.0245 185.952 4.93863 183.26 2.21163C182.189 1.12732 180.906 0.39282 179.548 0.000488281Z" fill="white"/>
<path d="M181.316 16.005C180.323 12.3055 176.995 9.58216 173.031 9.58423C171.534 9.5848 170.128 9.97505 168.903 10.6579C169.282 12.0771 170.015 13.4194 171.115 14.533C173.879 17.333 178.055 17.8199 181.316 16.005Z" fill="white"/>
<path d="M189.796 24.3591C187.904 27.6898 188.354 32.0131 191.164 34.8582C192.176 35.8834 193.38 36.5936 194.656 37.0001C195.382 35.7218 195.803 34.2433 195.802 32.6624C195.801 28.7669 193.276 25.4711 189.796 24.3591Z" fill="white"/>
<path d="M193.224 20.9944C194.346 24.4827 197.578 27.0049 201.393 27.0022C202.84 27.0018 204.201 26.6348 205.397 25.9937C204.991 24.7303 204.3 23.5403 203.309 22.5367C200.578 19.7699 196.467 19.257 193.224 20.9944Z" fill="white"/>
<path d="M178.621 32.6695C178.621 34.2479 179.042 35.7239 179.767 37.0004C181.046 36.593 182.251 35.8808 183.264 34.8525C186.07 32.0068 186.518 27.6867 184.627 24.3589C181.144 25.4715 178.618 28.7711 178.621 32.6695Z" fill="white"/>
<path d="M181.199 20.9942C177.954 19.2547 173.84 19.77 171.11 22.5408C170.121 23.5438 169.432 24.7326 169.027 25.9943C170.225 26.6364 171.589 27.0032 173.038 27.0022C176.85 27.0009 180.078 24.4796 181.199 20.9942Z" fill="white"/>
<path d="M195.802 3.91832C195.802 2.50702 195.463 1.17869 194.875 0C193.514 0.393086 192.23 1.1291 191.16 2.21558C188.471 4.94333 187.945 9.02647 189.568 12.2911C193.167 11.2515 195.805 7.9002 195.802 3.91832Z" fill="white"/>
<path d="M193.108 16.0047C196.372 17.8208 200.55 17.3325 203.314 14.5272C204.411 13.4146 205.142 12.0745 205.521 10.6577C204.293 9.97392 202.885 9.58348 201.386 9.58423C197.425 9.58574 194.1 12.3085 193.108 16.0047Z" fill="white"/>
<path d="M217.051 30.7266V7.23074H223.95C225.731 7.23074 227.384 7.52081 228.91 8.13319C230.436 8.71333 231.74 9.55132 232.789 10.5827C234.919 12.6777 236.191 15.6428 236.191 18.9303C236.191 20.6385 235.873 22.25 235.237 23.7326C234.601 25.2152 233.711 26.44 232.63 27.4713C230.436 29.5018 227.32 30.7266 223.95 30.7266H217.051ZM219.499 9.55132V28.406H223.855C225.794 28.406 227.511 27.987 228.974 27.1813C230.468 26.3755 231.644 25.2797 232.439 23.8616C233.266 22.4434 233.679 20.7997 233.679 18.9948C233.679 16.3197 232.693 13.9346 231.008 12.2264C229.355 10.5505 226.78 9.55132 223.855 9.55132H219.499ZM258.064 30.7266L255.521 24.7318H242.899L240.356 30.7266H237.876L247.859 7.23074H250.625L260.64 30.7266H258.064ZM254.599 22.4757L249.194 9.77693L243.821 22.4757H254.599ZM271.736 18.4791L279.143 7.23074H281.909L272.944 20.7997V30.7266H270.464V20.8319L261.498 7.23074H264.423L271.736 18.4791ZM292.306 30.9522C290.112 30.9522 288.014 30.1142 286.647 28.8895C285.216 27.6325 284.294 25.9565 284.103 24.3128L286.392 23.6682C286.647 25.0541 287.346 26.2144 288.491 27.1813C289.603 28.1482 290.875 28.6316 292.306 28.6316C293.641 28.6316 294.881 28.3093 295.867 27.6003C296.852 26.9234 297.488 25.7631 297.488 24.345C297.488 22.7013 296.63 21.6377 295.549 20.9931C294.786 20.5418 294.118 20.3485 293.355 20.1873L290.303 19.5749C289.667 19.446 288.999 19.2204 288.268 18.8981C287.537 18.5436 286.901 18.1246 286.36 17.5767C285.279 16.5131 284.739 15.1594 284.739 13.5156C284.739 12.2264 285.089 11.0661 285.788 10.067C286.488 9.03564 287.378 8.29434 288.491 7.74643C289.603 7.23074 290.78 6.9729 292.083 6.9729C297.075 6.9729 299.268 10.0992 299.745 12.6132L297.52 13.3223C297.138 11.6463 295.644 9.26125 292.051 9.26125C289.571 9.19679 287.155 10.9695 287.187 13.419C287.187 15.2238 288.3 16.6742 290.557 17.1254L293.482 17.7056C295.453 18.0923 296.979 18.7692 297.997 19.7683C298.696 20.4129 299.205 21.1542 299.523 21.9277C299.841 22.7335 300 23.4426 300 24.0872C300.031 28.2126 296.598 31.0489 292.306 30.9522Z" fill="white"/>
</g>
<defs>
<clipPath id="clip0_1_562">
<rect width="300" height="37" fill="white"/>
</clipPath>
</defs>
</svg>
